HIERARCHY
ROOT Model
{
	OFFSET 0 0 0
	CHANNELS 6 Xposition Yposition Zposition Zrotation Xrotation Yrotation
	JOINT Model1
	{
		OFFSET 0 -2.25479 2.99383
		CHANNELS 3 Zrotation Xrotation Yrotation
		JOINT Model2
		{
			OFFSET 12.111 0 0
			CHANNELS 3 Zrotation Xrotation Yrotation
			JOINT Model3
			{
				OFFSET 11.5502 0 0
				CHANNELS 3 Zrotation Xrotation Yrotation
				JOINT Model4
				{
					OFFSET 11.781 0 0
					CHANNELS 3 Zrotation Xrotation Yrotation
					JOINT Model5
					{
						OFFSET 20.0601 0 0
						CHANNELS 3 Zrotation Xrotation Yrotation
						JOINT Model6
						{
							OFFSET 11.1962 0 0
							CHANNELS 3 Zrotation Xrotation Yrotation
							End Site
							{
								OFFSET 0 0 0
							}
						}
					}
					JOINT Model7
					{
						OFFSET 10.8223 0.417534 3.51114
						CHANNELS 3 Zrotation Xrotation Yrotation
						JOINT Model8
						{
							OFFSET -6.07944 0 0
							CHANNELS 3 Zrotation Xrotation Yrotation
							JOINT Model9
							{
								OFFSET -0.277416 10.39 -0.0512447
								CHANNELS 3 Zrotation Xrotation Yrotation
								JOINT Model10
								{
									OFFSET -3.4391 -0.282043 1.86678
									CHANNELS 3 Zrotation Xrotation Yrotation
									JOINT Model11
									{
										OFFSET 13.0269 0 0
										CHANNELS 3 Zrotation Xrotation Yrotation
										JOINT Model12
										{
											OFFSET 10.8866 0 0
											CHANNELS 3 Zrotation Xrotation Yrotation
											JOINT Model13
											{
												OFFSET 16.7317 0 0
												CHANNELS 3 Zrotation Xrotation Yrotation
												JOINT Model14
												{
													OFFSET 11.8292 0 0
													CHANNELS 3 Zrotation Xrotation Yrotation
													JOINT Model15
													{
														OFFSET 4.82751 -3.73566 -0.836518
														CHANNELS 3 Zrotation Xrotation Yrotation
														JOINT Model16
														{
															OFFSET 3.75311 -0.0582886 -0.0186467
															CHANNELS 3 Zrotation Xrotation Yrotation
															JOINT Model17
															{
																OFFSET 2.88688 0.0192337 0.0148025
																CHANNELS 3 Zrotation Xrotation Yrotation
																End Site
																{
																	OFFSET 0 0 0
																}
															}
														}
													}
													JOINT Model18
													{
														OFFSET 9.72197 -3.06458 0.238767
														CHANNELS 3 Zrotation Xrotation Yrotation
														JOINT Model19
														{
															OFFSET 4.61131 0 0
															CHANNELS 3 Zrotation Xrotation Yrotation
															JOINT Model20
															{
																OFFSET 2.8969 -7.62939e-006 0
																CHANNELS 3 Zrotation Xrotation Yrotation
																End Site
																{
																	OFFSET 0 0 0
																}
															}
														}
													}
													JOINT Model21
													{
														OFFSET 9.54431 -0.745064 0.588937
														CHANNELS 3 Zrotation Xrotation Yrotation
														JOINT Model22
														{
															OFFSET 5.33978 0 0
															CHANNELS 3 Zrotation Xrotation Yrotation
															JOINT Model23
															{
																OFFSET 3.03619 7.62939e-006 0
																CHANNELS 3 Zrotation Xrotation Yrotation
																End Site
																{
																	OFFSET 0 0 0
																}
															}
														}
													}
													JOINT Model24
													{
														OFFSET 9.47759 1.51286 0.48512
														CHANNELS 3 Zrotation Xrotation Yrotation
														JOINT Model25
														{
															OFFSET 4.96136 7.62939e-006 0
															CHANNELS 3 Zrotation Xrotation Yrotation
															JOINT Model26
															{
																OFFSET 2.51966 0 0
																CHANNELS 3 Zrotation Xrotation Yrotation
																End Site
																{
																	OFFSET 0 0 0
																}
															}
														}
													}
													JOINT Model27
													{
														OFFSET 9.34247 3.34117 -0.23928
														CHANNELS 3 Zrotation Xrotation Yrotation
														JOINT Model28
														{
															OFFSET 3.2826 2.28882e-005 0
															CHANNELS 3 Zrotation Xrotation Yrotation
															JOINT Model29
															{
																OFFSET 2.1292 0 0
																CHANNELS 3 Zrotation Xrotation Yrotation
																End Site
																{
																	OFFSET 0 0 0
																}
															}
														}
													}
												}
											}
										}
									}
								}
							}
						}
					}
					JOINT Model30
					{
						OFFSET 10.8223 0.4179 -3.51107
						CHANNELS 3 Zrotation Xrotation Yrotation
						JOINT Model31
						{
							OFFSET 6.07943 0 0
							CHANNELS 3 Zrotation Xrotation Yrotation
							JOINT Model32
							{
								OFFSET 0.277416 -10.39 0.0512447
								CHANNELS 3 Zrotation Xrotation Yrotation
								JOINT Model33
								{
									OFFSET 3.4391 0.282043 -1.86678
									CHANNELS 3 Zrotation Xrotation Yrotation
									JOINT Model34
									{
										OFFSET -13.0269 0 0
										CHANNELS 3 Zrotation Xrotation Yrotation
										JOINT Model35
										{
											OFFSET -10.8866 0 0
											CHANNELS 3 Zrotation Xrotation Yrotation
											JOINT Model36
											{
												OFFSET -16.7317 0 0
												CHANNELS 3 Zrotation Xrotation Yrotation
												JOINT Model37
												{
													OFFSET -11.8292 0 0
													CHANNELS 3 Zrotation Xrotation Yrotation
													JOINT Model38
													{
														OFFSET -4.82751 3.73566 0.836516
														CHANNELS 3 Zrotation Xrotation Yrotation
														JOINT Model39
														{
															OFFSET -3.75311 0.0582886 0.0186429
															CHANNELS 3 Zrotation Xrotation Yrotation
															JOINT Model40
															{
																OFFSET -2.88688 -0.0192337 -0.0148025
																CHANNELS 3 Zrotation Xrotation Yrotation
																End Site
																{
																	OFFSET 0 0 0
																}
															}
														}
													}
													JOINT Model41
													{
														OFFSET -9.72197 3.06459 -0.23877
														CHANNELS 3 Zrotation Xrotation Yrotation
														JOINT Model42
														{
															OFFSET -4.6113 0 0
															CHANNELS 3 Zrotation Xrotation Yrotation
															JOINT Model43
															{
																OFFSET -2.8969 0 0
																CHANNELS 3 Zrotation Xrotation Yrotation
																End Site
																{
																	OFFSET 0 0 0
																}
															}
														}
													}
													JOINT Model44
													{
														OFFSET -9.5443 0.745064 -0.588939
														CHANNELS 3 Zrotation Xrotation Yrotation
														JOINT Model45
														{
															OFFSET -5.33978 0 0
															CHANNELS 3 Zrotation Xrotation Yrotation
															JOINT Model46
															{
																OFFSET -3.03619 -1.52588e-005 0
																CHANNELS 3 Zrotation Xrotation Yrotation
																End Site
																{
																	OFFSET 0 0 0
																}
															}
														}
													}
													JOINT Model47
													{
														OFFSET -9.47759 -1.51286 -0.485122
														CHANNELS 3 Zrotation Xrotation Yrotation
														JOINT Model48
														{
															OFFSET -4.96137 -1.52588e-005 0
															CHANNELS 3 Zrotation Xrotation Yrotation
															JOINT Model49
															{
																OFFSET -2.51966 0 0
																CHANNELS 3 Zrotation Xrotation Yrotation
																End Site
																{
																	OFFSET 0 0 0
																}
															}
														}
													}
													JOINT Model50
													{
														OFFSET -9.34246 -3.34118 0.239278
														CHANNELS 3 Zrotation Xrotation Yrotation
														JOINT Model51
														{
															OFFSET -3.2826 -2.28882e-005 0
															CHANNELS 3 Zrotation Xrotation Yrotation
															JOINT Model52
															{
																OFFSET -2.1292 0 0
																CHANNELS 3 Zrotation Xrotation Yrotation
																End Site
																{
																	OFFSET 0 0 0
																}
															}
														}
													}
												}
											}
										}
									}
								}
							}
						}
					}
				}
			}
		}
	}
	JOINT Model53
	{
		OFFSET 4.38026 -2.14632 -1.11516
		CHANNELS 3 Zrotation Xrotation Yrotation
		JOINT Model54
		{
			OFFSET 0 0 4.94999
			CHANNELS 3 Zrotation Xrotation Yrotation
			JOINT Model55
			{
				OFFSET 18.5642 0 0
				CHANNELS 3 Zrotation Xrotation Yrotation
				JOINT Model56
				{
					OFFSET 21.2884 0 1.15633e-005
					CHANNELS 3 Zrotation Xrotation Yrotation
					JOINT Model57
					{
						OFFSET 30.261 0 0
						CHANNELS 3 Zrotation Xrotation Yrotation
						JOINT Model58
						{
							OFFSET 11.7259 0 0
							CHANNELS 3 Zrotation Xrotation Yrotation
							JOINT Model59
							{
								OFFSET 10.682 0 0
								CHANNELS 3 Zrotation Xrotation Yrotation
								End Site
								{
									OFFSET 0 0 0
								}
							}
						}
					}
				}
			}
		}
	}
	JOINT Model60
	{
		OFFSET -4.38026 -2.14632 -1.11516
		CHANNELS 3 Zrotation Xrotation Yrotation
		JOINT Model61
		{
			OFFSET 0 0 -4.94999
			CHANNELS 3 Zrotation Xrotation Yrotation
			JOINT Model62
			{
				OFFSET -18.5642 0 0
				CHANNELS 3 Zrotation Xrotation Yrotation
				JOINT Model63
				{
					OFFSET -21.2884 0 -1.14441e-005
					CHANNELS 3 Zrotation Xrotation Yrotation
					JOINT Model64
					{
						OFFSET -30.261 0 0
						CHANNELS 3 Zrotation Xrotation Yrotation
						JOINT Model65
						{
							OFFSET -11.7259 0 0
							CHANNELS 3 Zrotation Xrotation Yrotation
							JOINT Model66
							{
								OFFSET -10.682 0 0
								CHANNELS 3 Zrotation Xrotation Yrotation
								End Site
								{
									OFFSET 0 0 0
								}
							}
						}
					}
				}
			}
		}
	}
}
MOTION
Frames: 4
Frame Time: 0.033333
8.69142 170.198 -34.7819 146.082 -71.5789 150.631 -180 4.29621e-031 -90 3.06229 -3.118 0.309783 6.15507 -6.21533 0.787967 6.15507 -6.21489 0.78792 -1.32043 6.48307 -3.05202 -7.15083 4.80419 6.49777 120.092 75.5343 58.4939 17.0246 -6.24066 -3.49533 -167.277 84.4999 48.8109 164.249 -2.52631 -37.1687 -9.95055e-007 26.524 3.50185e-005 -0.607631 -10.091 12.0389 -1.38979e-006 -15.4916 -1.93016e-006 29.9358 0.359456 1.34447 -72.0648 39.0385 39.3397 33.3638 2.10362 14.835 0.588947 0.308273 6.35287 -99.6409 81.413 100.35 -0.0181409 2.77362e-005 -0.117315 -0.124139 0.00241106 -0.799296 -79.8382 79.5773 80.5374 -0.000225789 -0.000220964 2.21725e-005 -0.000956243 0.000122839 -2.73502e-005 -66.7416 80.4058 67.2171 -0.000437146 1.59032e-005 -2.73407e-005 -0.000136623 -0.000109348 -5.46683e-005 -6.42159 81.2158 8.01779 -0.00021858 1.68561e-005 0.000212128 0.000901565 -0.000184872 -0.000218582 -59.9282 75.5373 58.5147 10.2354 -4.12114 -2.30303 -167.277 84.4999 48.8109 -174.768 -22.4696 -8.76312 9.55972e-006 -4.61186 2.82882e-005 -53.4984 11.9737 0.499796 -7.00607e-006 17.2935 3.17398e-006 51.9057 6.9679 14.2598 -72.0648 39.0385 39.3397 33.3638 2.10361 14.835 0.588946 0.308273 6.35287 -99.6409 81.413 100.35 -0.0181409 3.00407e-005 -0.117315 -0.124139 0.00241108 -0.799296 -79.8382 79.5773 80.5374 -0.000260626 -0.000218603 2.35644e-005 -0.000956199 0.000122946 -2.73288e-005 -66.7416 80.4058 67.2171 -0.000437112 1.48443e-005 -2.73266e-005 -0.000136577 -0.000109333 -5.46493e-005 -6.42159 81.2158 8.01779 -0.000218544 1.95392e-005 0.000212294 0.000901613 -0.000191299 -0.00021857 0.000811311 0.56661 89.91 -20.4911 -4.18767 -13.5846 4.73118e-007 1.27624 -3.34953e-009 68.9193 3.04116 -0.00805227 1.35371e-007 4.4478 1.1155e-007 -87.7036 1.87126 -2.17594 -35.4947 1.05052e-006 3.16546e-007 -180 -0.566579 -90.09 -14.9691 -17.8291 -17.6068 -5.88116e-006 -15.803 -8.94002e-007 63.9538 12.1331 -0.00754576 6.25115e-007 18.09 1.12901e-006 -80.7708 17.8025 -8.60492 -35.4947 -2.94058e-006 1.69317e-007 
8.66803 170.194 -34.7752 145.769 -71.5164 150.33 -180 4.29621e-031 -90 3.071 -3.13223 0.31219 6.17287 -6.24355 0.794049 6.17287 -6.24312 0.794002 -1.59577 6.51029 -2.95814 -6.72271 4.87732 6.4207 120.092 75.5343 58.4939 16.9921 -6.23223 -3.49055 -167.277 84.4999 48.8109 163.911 -2.41549 -37.304 -9.82259e-007 26.5052 3.50128e-005 -0.459974 -9.93306 12.3186 -1.38183e-006 -15.2635 -1.92805e-006 29.956 0.346437 1.29487 -72.0648 39.0385 39.3397 33.3638 2.10362 14.835 0.588947 0.308273 6.35287 -99.6409 81.413 100.35 -0.0181409 2.77362e-005 -0.117315 -0.124139 0.00241106 -0.799296 -79.8382 79.5773 80.5374 -0.000225789 -0.000220964 2.21725e-005 -0.000956243 0.000122839 -2.73502e-005 -66.7416 80.4058 67.2171 -0.000437146 1.59032e-005 -2.73407e-005 -0.000136623 -0.000109348 -5.46683e-005 -6.42159 81.2158 8.01779 -0.00021858 1.68561e-005 0.000212128 0.000901565 -0.000184872 -0.000218582 -59.9282 75.5373 58.5147 9.65407 -4.06852 -2.21734 -167.277 84.4999 48.8109 -175.139 -22.7442 -9.37234 9.65608e-006 -4.80635 2.82961e-005 -53.4934 12.0325 0.49987 -7.01118e-006 17.3816 3.17551e-006 51.9244 7.03361 14.3873 -72.0648 39.0385 39.3397 33.3638 2.10361 14.835 0.588946 0.308273 6.35287 -99.6409 81.413 100.35 -0.0181409 3.00407e-005 -0.117315 -0.124139 0.00241108 -0.799296 -79.8382 79.5773 80.5374 -0.000260626 -0.000218603 2.35644e-005 -0.000956199 0.000122946 -2.73288e-005 -66.7416 80.4058 67.2171 -0.000437112 1.48443e-005 -2.73266e-005 -0.000136577 -0.000109333 -5.46493e-005 -6.42159 81.2158 8.01779 -0.000218544 1.95392e-005 0.000212294 0.000901613 -0.000191299 -0.00021857 0.000811311 0.56661 89.91 -20.5086 -4.22572 -13.6927 4.73118e-007 1.27555 -3.34953e-009 68.9443 3.14214 -0.00805325 1.35075e-007 4.59925 1.11573e-007 -87.8708 1.84727 -2.16987 -35.4947 1.04652e-006 3.09522e-007 -180 -0.566579 -90.09 -14.9579 -18.1053 -17.8842 -5.88519e-006 -16.0511 -8.95108e-007 63.9605 12.369 -0.00755368 6.17764e-007 18.4439 1.13131e-006 -80.293 18.3197 -8.89506 -35.4947 -2.88907e-006 1.66342e-007 
8.65885 170.198 -34.7636 145.61 -71.4957 150.153 -180 4.29621e-031 -90 3.08146 -3.14225 0.310722 6.19388 -6.26357 0.792236 6.19388 -6.26314 0.792189 -1.87194 6.53024 -2.9583 -6.3824 4.90507 6.43082 120.092 75.5343 58.4939 17.003 -6.38587 -3.51645 -167.277 84.4999 48.8109 163.632 -2.23879 -37.2776 -1.03311e-006 26.5797 3.50355e-005 -0.399808 -9.8912 12.3754 -1.37966e-006 -15.2013 -1.92748e-006 29.8725 0.343521 1.28773 -72.0648 39.0385 39.3397 33.3638 2.10362 14.835 0.588947 0.308273 6.35287 -99.6409 81.413 100.35 -0.0181409 2.77362e-005 -0.117315 -0.124139 0.00241106 -0.799296 -79.8382 79.5773 80.5374 -0.000225789 -0.000220964 2.21725e-005 -0.000956243 0.000122839 -2.73502e-005 -66.7416 80.4058 67.2171 -0.000437146 1.59032e-005 -2.73407e-005 -0.000136623 -0.000109348 -5.46683e-005 -6.42159 81.2158 8.01779 -0.00021858 1.68561e-005 0.000212128 0.000901565 -0.000184872 -0.000218582 -59.9282 75.5373 58.5147 9.56108 -4.21085 -2.2377 -167.277 84.4999 48.8109 -175.411 -22.7411 -9.49232 9.65762e-006 -4.80945 2.82962e-005 -53.4694 12.1297 0.49989 -7.01966e-006 17.5274 3.17805e-006 52.0323 7.13721 14.563 -72.0648 39.0385 39.3397 33.3638 2.10361 14.835 0.588946 0.308273 6.35287 -99.6409 81.413 100.35 -0.0181409 3.00407e-005 -0.117315 -0.124139 0.00241108 -0.799296 -79.8382 79.5773 80.5374 -0.000260626 -0.000218603 2.35644e-005 -0.000956199 0.000122946 -2.73288e-005 -66.7416 80.4058 67.2171 -0.000437112 1.48443e-005 -2.73266e-005 -0.000136577 -0.000109333 -5.46493e-005 -6.42159 81.2158 8.01779 -0.000218544 1.95392e-005 0.000212294 0.000901613 -0.000191299 -0.00021857 0.000811311 0.56661 89.91 -20.5048 -4.24869 -13.7205 4.73117e-007 1.25721 -3.34951e-009 68.9197 3.20195 -0.00805345 1.349e-007 4.68899 1.11588e-007 -87.8741 1.93402 -2.19884 -35.4947 1.04358e-006 2.99707e-007 -180 -0.566579 -90.09 -14.9258 -18.2118 -17.9979 -5.88656e-006 -16.1351 -8.95486e-007 63.9403 12.4824 -0.00755662 6.14219e-007 18.614 1.13244e-006 -80.5101 18.1553 -8.79206 -35.4947 -2.84491e-006 1.63414e-007 
8.65464 170.203 -34.7439 145.632 -71.5208 150.164 -180 4.29621e-031 -90 3.08644 -3.14193 0.313165 6.204 -6.26276 0.797385 6.204 -6.26232 0.797337 -1.94203 6.54419 -3.18338 -6.40632 4.83091 6.67504 120.092 75.5343 58.4939 17.1967 -6.55315 -3.56329 -167.277 84.4999 48.8109 163.521 -2.16577 -37.0027 -1.01687e-006 26.5559 3.50282e-005 -0.464021 -9.8797 12.2862 -1.3789e-006 -15.1794 -1.92728e-006 29.6899 0.310935 1.17309 -72.0648 39.0385 39.3397 33.3638 2.10362 14.835 0.588947 0.308273 6.35287 -99.6409 81.413 100.35 -0.0181409 2.77362e-005 -0.117315 -0.124139 0.00241106 -0.799296 -79.8382 79.5773 80.5374 -0.000225789 -0.000220964 2.21725e-005 -0.000956243 0.000122839 -2.73502e-005 -66.7416 80.4058 67.2171 -0.000437146 1.59032e-005 -2.73407e-005 -0.000136623 -0.000109348 -5.46683e-005 -6.42159 81.2158 8.01779 -0.00021858 1.68561e-005 0.000212128 0.000901565 -0.000184872 -0.000218582 -59.9282 75.5373 58.5147 10.0737 -4.55428 -2.37863 -167.277 84.4999 48.8109 -175.612 -22.4082 -9.06343 9.54113e-006 -4.57433 2.82867e-005 -53.2801 12.1063 0.498619 -7.01764e-006 17.4928 3.17744e-006 52.2338 7.14254 14.5097 -72.0648 39.0385 39.3397 33.3638 2.10361 14.835 0.588946 0.308273 6.35287 -99.6409 81.413 100.35 -0.0181409 3.00407e-005 -0.117315 -0.124139 0.00241108 -0.799296 -79.8382 79.5773 80.5374 -0.000260626 -0.000218603 2.35644e-005 -0.000956199 0.000122946 -2.73288e-005 -66.7416 80.4058 67.2171 -0.000437112 1.48443e-005 -2.73266e-005 -0.000136577 -0.000109333 -5.46493e-005 -6.42159 81.2158 8.01779 -0.000218544 1.95392e-005 0.000212294 0.000901613 -0.000191299 -0.00021857 0.000811311 0.56661 89.91 -20.4917 -4.24115 -13.6779 4.73116e-007 1.24754 -3.3495e-009 68.8885 3.15923 -0.00805239 1.35025e-007 4.62494 1.11577e-007 -87.7237 2.16013 -2.27294 -35.4947 1.04167e-006 2.8721e-007 -180 -0.566579 -90.09 -14.9122 -18.1639 -17.9465 -5.88582e-006 -16.0899 -8.95282e-007 63.9166 12.461 -0.00755419 6.14888e-007 18.5819 1.13223e-006 -80.7455 17.9105 -8.65368 -35.4947 -2.80771e-006 1.60532e-007 
